<svg width="36" height="36" viewBox="0 0 36 36" fill="none" xmlns="http://www.w3.org/2000/svg">
<path d="M28.5 25.5H31.5C32.4 25.5 33 24.9 33 24V19.5C33 18.15 31.95 16.95 30.75 16.65C28.05 15.9 24 15 24 15C24 15 22.05 12.9 20.7 11.55C19.95 10.95 19.05 10.5 18 10.5H7.5C6.6 10.5 5.85 11.1 5.4 11.85L3.3 16.2C3.10137 16.7793 3 17.3876 3 18V24C3 24.9 3.6 25.5 4.5 25.5H7.5M28.5 25.5C28.5 27.1569 27.1569 28.5 25.5 28.5C23.8431 28.5 22.5 27.1569 22.5 25.5M28.5 25.5C28.5 23.8431 27.1569 22.5 25.5 22.5C23.8431 22.5 22.5 23.8431 22.5 25.5M7.5 25.5C7.5 27.1569 8.84315 28.5 10.5 28.5C12.1569 28.5 13.5 27.1569 13.5 25.5M7.5 25.5C7.5 23.8431 8.84315 22.5 10.5 22.5C12.1569 22.5 13.5 23.8431 13.5 25.5M13.5 25.5H22.5" stroke="#DC2626" stroke-width="3" stroke-linecap="round" stroke-linejoin="round"/>
</svg>
