<svg width="151" height="36" viewBox="0 0 151 36" fill="none" xmlns="http://www.w3.org/2000/svg">
<path d="M28.5 25.5H31.5C32.4 25.5 33 24.9 33 24V19.5C33 18.15 31.95 16.95 30.75 16.65C28.05 15.9 24 15 24 15C24 15 22.05 12.9 20.7 11.55C19.95 10.95 19.05 10.5 18 10.5H7.5C6.6 10.5 5.85 11.1 5.4 11.85L3.3 16.2C3.10137 16.7793 3 17.3876 3 18V24C3 24.9 3.6 25.5 4.5 25.5H7.5M28.5 25.5C28.5 27.1569 27.1569 28.5 25.5 28.5C23.8431 28.5 22.5 27.1569 22.5 25.5M28.5 25.5C28.5 23.8431 27.1569 22.5 25.5 22.5C23.8431 22.5 22.5 23.8431 22.5 25.5M7.5 25.5C7.5 27.1569 8.84315 28.5 10.5 28.5C12.1569 28.5 13.5 27.1569 13.5 25.5M7.5 25.5C7.5 23.8431 8.84315 22.5 10.5 22.5C12.1569 22.5 13.5 23.8431 13.5 25.5M13.5 25.5H22.5" stroke="#DC2626" stroke-width="3" stroke-linecap="round" stroke-linejoin="round"/>
<path d="M36.512 19.308C36.512 18.1773 36.7253 17.1213 37.152 16.14C37.5787 15.1373 38.1653 14.2627 38.912 13.516C39.6587 12.7693 40.5227 12.1827 41.504 11.756C42.5067 11.3293 43.5733 11.116 44.704 11.116C45.8347 11.116 46.8907 11.3293 47.872 11.756C48.8747 12.1827 49.7493 12.7693 50.496 13.516C51.2427 14.2627 51.8293 15.1373 52.256 16.14C52.6827 17.1213 52.896 18.1773 52.896 19.308V25.452C52.896 26.0067 52.6933 26.4867 52.288 26.892C51.8827 27.2973 51.4027 27.5 50.848 27.5C50.4213 27.5 50.0373 27.3933 49.696 27.18C49.376 26.9453 49.1307 26.6467 48.96 26.284C48.3413 26.668 47.6693 26.9667 46.944 27.18C46.24 27.3933 45.4933 27.5 44.704 27.5C43.5733 27.5 42.5067 27.2867 41.504 26.86C40.5227 26.4333 39.6587 25.8467 38.912 25.1C38.1653 24.3533 37.5787 23.4893 37.152 22.508C36.7253 21.5053 36.512 20.4387 36.512 19.308ZM40.608 19.308C40.608 19.884 40.7147 20.4173 40.928 20.908C41.1413 21.3987 41.4293 21.836 41.792 22.22C42.176 22.5827 42.6133 22.8707 43.104 23.084C43.5947 23.2973 44.128 23.404 44.704 23.404C45.28 23.404 45.8133 23.2973 46.304 23.084C46.7947 22.8707 47.2213 22.5827 47.584 22.22C47.968 21.836 48.2667 21.3987 48.48 20.908C48.6933 20.4173 48.8 19.884 48.8 19.308C48.8 18.732 48.6933 18.1987 48.48 17.708C48.2667 17.2173 47.968 16.7907 47.584 16.428C47.2213 16.044 46.7947 15.7453 46.304 15.532C45.8133 15.3187 45.28 15.212 44.704 15.212C44.128 15.212 43.5947 15.3187 43.104 15.532C42.6133 15.7453 42.176 16.044 41.792 16.428C41.4293 16.7907 41.1413 17.2173 40.928 17.708C40.7147 18.1987 40.608 18.732 40.608 19.308ZM70.8083 19.308C70.8083 20.4387 70.5949 21.5053 70.1683 22.508C69.7416 23.4893 69.1549 24.3533 68.4083 25.1C67.6616 25.8467 66.7869 26.4333 65.7843 26.86C64.8029 27.2867 63.7469 27.5 62.6163 27.5C61.4856 27.5 60.4189 27.2867 59.4163 26.86C58.4349 26.4333 57.5709 25.8467 56.8243 25.1C56.0776 24.3533 55.4909 23.4893 55.0643 22.508C54.6376 21.5053 54.4243 20.4387 54.4243 19.308V13.164C54.4243 12.6093 54.6269 12.1293 55.0323 11.724C55.4376 11.3187 55.9176 11.116 56.4723 11.116C57.0269 11.116 57.5069 11.3187 57.9123 11.724C58.3176 12.1293 58.5203 12.6093 58.5203 13.164V19.308C58.5203 19.884 58.6269 20.4173 58.8403 20.908C59.0536 21.3987 59.3416 21.836 59.7043 22.22C60.0883 22.5827 60.5256 22.8707 61.0163 23.084C61.5069 23.2973 62.0403 23.404 62.6163 23.404C63.1923 23.404 63.7256 23.2973 64.2163 23.084C64.7069 22.8707 65.1336 22.5827 65.4963 22.22C65.8803 21.836 66.1789 21.3987 66.3923 20.908C66.6056 20.4173 66.7123 19.884 66.7123 19.308V13.164C66.7123 12.6093 66.9149 12.1293 67.3203 11.724C67.7256 11.3187 68.2056 11.116 68.7603 11.116C69.3149 11.116 69.7949 11.3187 70.2003 11.724C70.6056 12.1293 70.8083 12.6093 70.8083 13.164V19.308ZM79.4985 23.404C80.0532 23.404 80.5332 23.6067 80.9385 24.012C81.3438 24.4173 81.5465 24.8973 81.5465 25.452C81.5465 26.0067 81.3438 26.4867 80.9385 26.892C80.5332 27.2973 80.0532 27.5 79.4985 27.5H78.4745C77.6212 27.5 76.8212 27.34 76.0745 27.02C75.3278 26.7 74.6772 26.2627 74.1225 25.708C73.5678 25.1533 73.1305 24.5027 72.8105 23.756C72.4905 23.0093 72.3305 22.2093 72.3305 21.356V9.068C72.3305 8.51333 72.5332 8.03333 72.9385 7.628C73.3438 7.22267 73.8238 7.02 74.3785 7.02C74.9332 7.02 75.4132 7.22267 75.8185 7.628C76.2238 8.03333 76.4265 8.51333 76.4265 9.068V11.116H79.4985C80.0532 11.116 80.5332 11.3187 80.9385 11.724C81.3438 12.1293 81.5465 12.6093 81.5465 13.164C81.5465 13.7187 81.3438 14.1987 80.9385 14.604C80.5332 15.0093 80.0532 15.212 79.4985 15.212H76.4265V21.356C76.4265 21.9107 76.6292 22.3907 77.0345 22.796C77.4398 23.2013 77.9198 23.404 78.4745 23.404H79.4985ZM81.2933 19.308C81.2933 18.1773 81.5066 17.1213 81.9333 16.14C82.3599 15.1373 82.9466 14.2627 83.6933 13.516C84.4399 12.7693 85.3039 12.1827 86.2853 11.756C87.2879 11.3293 88.3546 11.116 89.4853 11.116C90.6159 11.116 91.6719 11.3293 92.6533 11.756C93.6559 12.1827 94.5306 12.7693 95.2773 13.516C96.0239 14.2627 96.6106 15.1373 97.0373 16.14C97.4639 17.1213 97.6772 18.1773 97.6772 19.308C97.6772 20.4387 97.4639 21.5053 97.0373 22.508C96.6106 23.4893 96.0239 24.3533 95.2773 25.1C94.5306 25.8467 93.6559 26.4333 92.6533 26.86C91.6719 27.2867 90.6159 27.5 89.4853 27.5C88.3546 27.5 87.2879 27.2867 86.2853 26.86C85.3039 26.4333 84.4399 25.8467 83.6933 25.1C82.9466 24.3533 82.3599 23.4893 81.9333 22.508C81.5066 21.5053 81.2933 20.4387 81.2933 19.308ZM85.3893 19.308C85.3893 19.884 85.4959 20.4173 85.7093 20.908C85.9226 21.3987 86.2106 21.836 86.5733 22.22C86.9573 22.5827 87.3946 22.8707 87.8853 23.084C88.3759 23.2973 88.9093 23.404 89.4853 23.404C90.0613 23.404 90.5946 23.2973 91.0853 23.084C91.5759 22.8707 92.0026 22.5827 92.3653 22.22C92.7493 21.836 93.0479 21.3987 93.2613 20.908C93.4746 20.4173 93.5813 19.884 93.5813 19.308C93.5813 18.732 93.4746 18.1987 93.2613 17.708C93.0479 17.2173 92.7493 16.7907 92.3653 16.428C92.0026 16.044 91.5759 15.7453 91.0853 15.532C90.5946 15.3187 90.0613 15.212 89.4853 15.212C88.9093 15.212 88.3759 15.3187 87.8853 15.532C87.3946 15.7453 86.9573 16.044 86.5733 16.428C86.2106 16.7907 85.9226 17.2173 85.7093 17.708C85.4959 18.1987 85.3893 18.732 85.3893 19.308ZM115.083 19.308C115.083 20.4387 114.87 21.5053 114.444 22.508C114.017 23.4893 113.43 24.3533 112.684 25.1C111.937 25.8467 111.062 26.4333 110.06 26.86C109.078 27.2867 108.022 27.5 106.892 27.5C105.761 27.5 104.694 27.2867 103.692 26.86C102.71 26.4333 101.846 25.8467 101.1 25.1C100.353 24.3533 99.7662 23.4893 99.3395 22.508C98.9128 21.5053 98.6995 20.4387 98.6995 19.308C98.6995 18.1773 98.9128 17.1213 99.3395 16.14C99.7662 15.1373 100.353 14.2627 101.1 13.516C101.846 12.7693 102.71 12.1827 103.692 11.756C104.694 11.3293 105.761 11.116 106.892 11.116C107.638 11.116 108.353 11.212 109.036 11.404C109.718 11.596 110.369 11.8733 110.988 12.236V7.02C110.988 6.46533 111.19 5.98533 111.596 5.58C112.001 5.17466 112.481 4.972 113.036 4.972C113.59 4.972 114.07 5.17466 114.476 5.58C114.881 5.98533 115.083 6.46533 115.083 7.02V19.308ZM110.988 19.308C110.988 18.732 110.881 18.1987 110.668 17.708C110.454 17.2173 110.156 16.7907 109.772 16.428C109.409 16.044 108.982 15.7453 108.492 15.532C108.001 15.3187 107.468 15.212 106.892 15.212C106.316 15.212 105.782 15.3187 105.292 15.532C104.801 15.7453 104.364 16.044 103.98 16.428C103.617 16.7907 103.329 17.2173 103.116 17.708C102.902 18.1987 102.796 18.732 102.796 19.308C102.796 19.884 102.902 20.4173 103.116 20.908C103.329 21.3987 103.617 21.836 103.98 22.22C104.364 22.5827 104.801 22.8707 105.292 23.084C105.782 23.2973 106.316 23.404 106.892 23.404C107.468 23.404 108.001 23.2973 108.492 23.084C108.982 22.8707 109.409 22.5827 109.772 22.22C110.156 21.836 110.454 21.3987 110.668 20.908C110.881 20.4173 110.988 19.884 110.988 19.308ZM124.548 27.5C123.417 27.5 122.35 27.2867 121.348 26.86C120.366 26.4333 119.502 25.8467 118.756 25.1C118.009 24.3533 117.422 23.4893 116.996 22.508C116.569 21.5053 116.356 20.4387 116.356 19.308C116.356 18.1773 116.569 17.1213 116.996 16.14C117.422 15.1373 118.009 14.2627 118.756 13.516C119.502 12.7693 120.366 12.1827 121.348 11.756C122.35 11.3293 123.417 11.116 124.548 11.116C125.678 11.116 126.734 11.3293 127.716 11.756C128.718 12.1827 129.593 12.7693 130.34 13.516C131.086 14.2627 131.673 15.1373 132.1 16.14C132.526 17.1213 132.74 18.1773 132.74 19.308C132.74 19.8627 132.537 20.3427 132.132 20.748C131.726 21.1533 131.246 21.356 130.692 21.356H120.996C121.358 21.9747 121.849 22.476 122.468 22.86C123.086 23.2227 123.78 23.404 124.548 23.404H125.572C126.126 23.404 126.606 23.6067 127.012 24.012C127.417 24.4173 127.62 24.8973 127.62 25.452C127.62 26.0067 127.417 26.4867 127.012 26.892C126.606 27.2973 126.126 27.5 125.572 27.5H124.548ZM124.548 15.212C123.78 15.212 123.086 15.404 122.468 15.788C121.849 16.1507 121.358 16.6413 120.996 17.26H128.1C127.737 16.6413 127.236 16.1507 126.596 15.788C125.977 15.404 125.294 15.212 124.548 15.212ZM142.21 15.212C141.655 15.212 141.175 15.0093 140.77 14.604C140.365 14.1987 140.162 13.7187 140.162 13.164C140.162 12.6093 140.365 12.1293 140.77 11.724C141.175 11.3187 141.655 11.116 142.21 11.116C143.341 11.116 144.397 11.3293 145.378 11.756C146.381 12.1827 147.255 12.7693 148.002 13.516C148.749 14.2627 149.335 15.1373 149.762 16.14C150.189 17.1213 150.402 18.1773 150.402 19.308C150.402 20.4387 150.189 21.5053 149.762 22.508C149.335 23.4893 148.749 24.3533 148.002 25.1C147.255 25.8467 146.381 26.4333 145.378 26.86C144.397 27.2867 143.341 27.5 142.21 27.5C141.079 27.5 140.013 27.2867 139.01 26.86C138.029 26.4333 137.165 25.8467 136.418 25.1C135.671 24.3533 135.085 23.4893 134.658 22.508C134.231 21.5053 134.018 20.4387 134.018 19.308V13.164C134.018 12.6093 134.221 12.1293 134.626 11.724C135.031 11.3187 135.511 11.116 136.066 11.116C136.621 11.116 137.101 11.3187 137.506 11.724C137.911 12.1293 138.114 12.6093 138.114 13.164V19.308C138.114 19.884 138.221 20.4173 138.434 20.908C138.647 21.3987 138.935 21.836 139.298 22.22C139.682 22.5827 140.119 22.8707 140.61 23.084C141.101 23.2973 141.634 23.404 142.21 23.404C142.786 23.404 143.319 23.2973 143.81 23.084C144.301 22.8707 144.727 22.5827 145.09 22.22C145.474 21.836 145.773 21.3987 145.986 20.908C146.199 20.4173 146.306 19.884 146.306 19.308C146.306 18.732 146.199 18.1987 145.986 17.708C145.773 17.2173 145.474 16.7907 145.09 16.428C144.727 16.044 144.301 15.7453 143.81 15.532C143.319 15.3187 142.786 15.212 142.21 15.212Z" fill="#0A0A0A"/>
</svg>
